<svg xmlns="http://www.w3.org/2000/svg" viewBox="0 0 710.4 456.0" width="710" height="456" font-family="'DejaVu Sans Mono', 'Bitstream Vera Sans Mono', 'Liberation Mono', monospace" font-size="16.0" xml:space="preserve">
<style></style>
<rect width="100%" height="100%" fill="#000000"/>
<rect x="537.6" y="190.0" width="9.6" height="19.0" fill="#404"/>
<g fill="#ccc" text-anchor="middle">
<text x="4.8" y="14.2">Y</text>
<text x="14.4" y="14.2">o</text>
<text x="24.0" y="14.2">u</text>
<text x="43.2" y="14.2">f</text>
<text x="52.8" y="14.2">e</text>
<text x="62.4" y="14.2">e</text>
<text x="72.0" y="14.2">l</text>
<text x="91.2" y="14.2">b</text>
<text x="100.8" y="14.2">e</text>
<text x="110.4" y="14.2">t</text>
<text x="120.0" y="14.2">t</text>
<text x="129.6" y="14.2">e</text>
<text x="139.2" y="14.2">r</text>
<text x="148.8" y="14.2">.</text>
<text x="456.0" y="71.2">┌</text>
<text x="465.6" y="71.2">─</text>
<text x="475.2" y="71.2">─</text>
<text x="484.8" y="71.2">─</text>
<text x="494.4" y="71.2">─</text>
<text x="504.0" y="71.2">─</text>
<text x="513.6" y="71.2">─</text>
<text x="523.2" y="71.2">─</text>
<text x="532.8" y="71.2">─</text>
<text x="542.4" y="71.2">─</text>
<text x="552.0" y="71.2">─</text>
<text x="561.6" y="71.2">─</text>
<text x="571.2" y="71.2">─</text>
<text x="580.8" y="71.2">┐</text>
<text x="264.0" y="90.2">┌</text>
<text x="273.6" y="90.2">─</text>
<text x="283.2" y="90.2">─</text>
<text x="292.8" y="90.2">─</text>
<text x="302.4" y="90.2">─</text>
<text x="312.0" y="90.2">─</text>
<text x="321.6" y="90.2">┐</text>
<text x="456.0" y="90.2">│</text>
<text x="580.8" y="90.2">│</text>
<text x="264.0" y="109.2">│</text>
<text x="312.0" y="109.2">d</text>
<text x="321.6" y="109.2">│</text>
<text x="417.6" y="109.2">┌</text>
<text x="427.2" y="109.2">─</text>
<text x="436.8" y="109.2">─</text>
<text x="446.4" y="109.2">─</text>
<text x="456.0" y="109.2">┘</text>
<text x="580.8" y="109.2">└</text>
<text x="590.4" y="109.2">─</text>
<text x="600.0" y="109.2">─</text>
<text x="609.6" y="109.2">─</text>
<text x="619.2" y="109.2">─</text>
<text x="628.8" y="109.2">─</text>
<text x="638.4" y="109.2">┐</text>
<text x="62.4" y="128.2">┌</text>
<text x="72.0" y="128.2">─</text>
<text x="81.6" y="128.2">─</text>
<text x="91.2" y="128.2">─</text>
<text x="100.8" y="128.2">─</text>
<text x="110.4" y="128.2">─</text>
<text x="120.0" y="128.2">─</text>
<text x="129.6" y="128.2">─</text>
<text x="139.2" y="128.2">┐</text>
<text x="264.0" y="128.2">│</text>
<text x="302.4" y="128.2">Z</text>
<text x="321.6" y="128.2">└</text>
<text x="331.2" y="128.2">┐</text>
<text x="417.6" y="128.2">│</text>
<text x="638.4" y="128.2">│</text>
<text x="62.4" y="147.2">│</text>
<text x="139.2" y="147.2">│</text>
<text x="235.2" y="147.2">┌</text>
<text x="244.8" y="147.2">─</text>
<text x="254.4" y="147.2">─</text>
<text x="264.0" y="147.2">┘</text>
<text x="283.2" y="147.2">d</text>
<text x="331.2" y="147.2">├</text>
<text x="340.8" y="147.2">─</text>
<text x="350.4" y="147.2">─</text>
<text x="360.0" y="147.2">─</text>
<text x="369.6" y="147.2">─</text>
<text x="379.2" y="147.2">─</text>
<text x="388.8" y="147.2">─</text>
<text x="398.4" y="147.2">┬</text>
<text x="408.0" y="147.2">─</text>
<text x="417.6" y="147.2">┘</text>
<text x="638.4" y="147.2">└</text>
<text x="648.0" y="147.2">─</text>
<text x="657.6" y="147.2">─</text>
<text x="667.2" y="147.2">┐</text>
<text x="62.4" y="166.2">│</text>
<text x="91.2" y="166.2">┌</text>
<text x="100.8" y="166.2">─</text>
<text x="110.4" y="166.2">─</text>
<text x="129.6" y="166.2">─</text>
<text x="139.2" y="166.2">┴</text>
<text x="148.8" y="166.2">─</text>
<text x="158.4" y="166.2">─</text>
<text x="168.0" y="166.2">─</text>
<text x="177.6" y="166.2">┐</text>
<text x="235.2" y="166.2">│</text>
<text x="302.4" y="166.2">v</text>
<text x="398.4" y="166.2">│</text>
<text x="504.0" y="166.2">┌</text>
<text x="513.6" y="166.2">─</text>
<text x="523.2" y="166.2">─</text>
<text x="532.8" y="166.2">─</text>
<text x="542.4" y="166.2">─</text>
<text x="552.0" y="166.2">─</text>
<text x="561.6" y="166.2">─</text>
<text x="571.2" y="166.2">─</text>
<text x="580.8" y="166.2">┐</text>
<text x="667.2" y="166.2">│</text>
<text x="62.4" y="185.2">│</text>
<text x="91.2" y="185.2">│</text>
<text x="177.6" y="185.2">│</text>
<text x="235.2" y="185.2">│</text>
<text x="331.2" y="185.2">├</text>
<text x="340.8" y="185.2">─</text>
<text x="350.4" y="185.2">─</text>
<text x="360.0" y="185.2">─</text>
<text x="369.6" y="185.2">┬</text>
<text x="388.8" y="185.2">─</text>
<text x="398.4" y="185.2">┘</text>
<text x="504.0" y="185.2">│</text>
<text x="580.8" y="185.2">│</text>
<text x="667.2" y="185.2">└</text>
<text x="676.8" y="185.2">─</text>
<text x="686.4" y="185.2">┐</text>
<text x="62.4" y="204.2">└</text>
<text x="72.0" y="204.2">─</text>
<text x="81.6" y="204.2">┬</text>
<text x="91.2" y="204.2">┴</text>
<text x="100.8" y="204.2">─</text>
<text x="110.4" y="204.2">─</text>
<text x="120.0" y="204.2">─</text>
<text x="129.6" y="204.2">─</text>
<text x="139.2" y="204.2">─</text>
<text x="148.8" y="204.2">┐</text>
<text x="177.6" y="204.2">├</text>
<text x="187.2" y="204.2">─</text>
<text x="196.8" y="204.2">─</text>
<text x="206.4" y="204.2">─</text>
<text x="216.0" y="204.2">─</text>
<text x="225.6" y="204.2">┬</text>
<text x="235.2" y="204.2">┘</text>
<text x="321.6" y="204.2">Z</text>
<text x="331.2" y="204.2">│</text>
<text x="369.6" y="204.2">│</text>
<text x="504.0" y="204.2">│</text>
<text x="580.8" y="204.2">│</text>
<text x="686.4" y="204.2">│</text>
<text x="81.6" y="223.2">│</text>
<text x="148.8" y="223.2">│</text>
<text x="177.6" y="223.2">│</text>
<text x="225.6" y="223.2">│</text>
<text x="302.4" y="223.2">v</text>
<text x="331.2" y="223.2">│</text>
<text x="369.6" y="223.2">└</text>
<text x="379.2" y="223.2">─</text>
<text x="388.8" y="223.2">─</text>
<text x="398.4" y="223.2">┐</text>
<text x="504.0" y="223.2">│</text>
<text x="580.8" y="223.2">│</text>
<text x="686.4" y="223.2">│</text>
<text x="81.6" y="242.2">│</text>
<text x="110.4" y="242.2">┌</text>
<text x="120.0" y="242.2">─</text>
<text x="139.2" y="242.2">─</text>
<text x="148.8" y="242.2">┴</text>
<text x="158.4" y="242.2">─</text>
<text x="177.6" y="242.2">┴</text>
<text x="187.2" y="242.2">─</text>
<text x="196.8" y="242.2">─</text>
<text x="216.0" y="242.2">─</text>
<text x="225.6" y="242.2">┴</text>
<text x="235.2" y="242.2">─</text>
<text x="244.8" y="242.2">┐</text>
<text x="321.6" y="242.2">┌</text>
<text x="331.2" y="242.2">┘</text>
<text x="398.4" y="242.2">│</text>
<text x="580.8" y="242.2">│</text>
<text x="686.4" y="242.2">│</text>
<text x="81.6" y="261.2">│</text>
<text x="110.4" y="261.2">│</text>
<text x="244.8" y="261.2">│</text>
<text x="321.6" y="261.2">│</text>
<text x="398.4" y="261.2">│</text>
<text x="504.0" y="261.2">└</text>
<text x="513.6" y="261.2">─</text>
<text x="523.2" y="261.2">─</text>
<text x="532.8" y="261.2">─</text>
<text x="542.4" y="261.2">─</text>
<text x="552.0" y="261.2">─</text>
<text x="561.6" y="261.2">─</text>
<text x="571.2" y="261.2">─</text>
<text x="580.8" y="261.2">┘</text>
<text x="686.4" y="261.2">│</text>
<text x="72.0" y="280.2">┌</text>
<text x="81.6" y="280.2">┴</text>
<text x="91.2" y="280.2">─</text>
<text x="110.4" y="280.2">┴</text>
<text x="120.0" y="280.2">┬</text>
<text x="129.6" y="280.2">─</text>
<text x="139.2" y="280.2">─</text>
<text x="148.8" y="280.2">─</text>
<text x="158.4" y="280.2">─</text>
<text x="168.0" y="280.2">┬</text>
<text x="177.6" y="280.2">─</text>
<text x="187.2" y="280.2">─</text>
<text x="206.4" y="280.2">─</text>
<text x="216.0" y="280.2">─</text>
<text x="225.6" y="280.2">─</text>
<text x="235.2" y="280.2">┬</text>
<text x="244.8" y="280.2">┴</text>
<text x="254.4" y="280.2">┬</text>
<text x="264.0" y="280.2">─</text>
<text x="283.2" y="280.2">─</text>
<text x="292.8" y="280.2">┬</text>
<text x="302.4" y="280.2">─</text>
<text x="312.0" y="280.2">─</text>
<text x="321.6" y="280.2">┘</text>
<text x="398.4" y="280.2">│</text>
<text x="667.2" y="280.2">┌</text>
<text x="676.8" y="280.2">─</text>
<text x="686.4" y="280.2">┘</text>
<text x="52.8" y="299.2">┌</text>
<text x="62.4" y="299.2">─</text>
<text x="72.0" y="299.2">┘</text>
<text x="100.8" y="299.2">·</text>
<text x="110.4" y="299.2">·</text>
<text x="120.0" y="299.2">│</text>
<text x="168.0" y="299.2">│</text>
<text x="235.2" y="299.2">│</text>
<text x="254.4" y="299.2">│</text>
<text x="292.8" y="299.2">│</text>
<text x="398.4" y="299.2">│</text>
<text x="667.2" y="299.2">│</text>
<text x="52.8" y="318.2">│</text>
<text x="120.0" y="318.2">└</text>
<text x="129.6" y="318.2">─</text>
<text x="139.2" y="318.2">┐</text>
<text x="168.0" y="318.2">└</text>
<text x="177.6" y="318.2">─</text>
<text x="187.2" y="318.2">┐</text>
<text x="235.2" y="318.2">└</text>
<text x="244.8" y="318.2">─</text>
<text x="254.4" y="318.2">┘</text>
<text x="292.8" y="318.2">│</text>
<text x="398.4" y="318.2">└</text>
<text x="408.0" y="318.2">─</text>
<text x="417.6" y="318.2">─</text>
<text x="427.2" y="318.2">┐</text>
<text x="638.4" y="318.2">┌</text>
<text x="648.0" y="318.2">─</text>
<text x="657.6" y="318.2">─</text>
<text x="667.2" y="318.2">┘</text>
<text x="52.8" y="337.2">└</text>
<text x="62.4" y="337.2">─</text>
<text x="72.0" y="337.2">─</text>
<text x="81.6" y="337.2">┐</text>
<text x="100.8" y="337.2">·</text>
<text x="110.4" y="337.2">&lt;</text>
<text x="120.0" y="337.2">·</text>
<text x="139.2" y="337.2">│</text>
<text x="187.2" y="337.2">│</text>
<text x="292.8" y="337.2">│</text>
<text x="427.2" y="337.2">│</text>
<text x="638.4" y="337.2">│</text>
<text x="81.6" y="356.2">│</text>
<text x="139.2" y="356.2">│</text>
<text x="187.2" y="356.2">└</text>
<text x="196.8" y="356.2">─</text>
<text x="206.4" y="356.2">─</text>
<text x="216.0" y="356.2">─</text>
<text x="225.6" y="356.2">─</text>
<text x="235.2" y="356.2">─</text>
<text x="244.8" y="356.2">┐</text>
<text x="283.2" y="356.2">┌</text>
<text x="292.8" y="356.2">┘</text>
<text x="427.2" y="356.2">└</text>
<text x="436.8" y="356.2">─</text>
<text x="446.4" y="356.2">─</text>
<text x="456.0" y="356.2">─</text>
<text x="465.6" y="356.2">┐</text>
<text x="580.8" y="356.2">┌</text>
<text x="590.4" y="356.2">─</text>
<text x="600.0" y="356.2">─</text>
<text x="609.6" y="356.2">─</text>
<text x="619.2" y="356.2">─</text>
<text x="628.8" y="356.2">─</text>
<text x="638.4" y="356.2">┘</text>
<text x="81.6" y="375.2">│</text>
<text x="139.2" y="375.2">│</text>
<text x="244.8" y="375.2">│</text>
<text x="283.2" y="375.2">│</text>
<text x="465.6" y="375.2">│</text>
<text x="580.8" y="375.2">│</text>
<text x="81.6" y="394.2">└</text>
<text x="91.2" y="394.2">─</text>
<text x="100.8" y="394.2">─</text>
<text x="110.4" y="394.2">─</text>
<text x="120.0" y="394.2">─</text>
<text x="129.6" y="394.2">─</text>
<text x="139.2" y="394.2">┘</text>
<text x="244.8" y="394.2">└</text>
<text x="254.4" y="394.2">─</text>
<text x="264.0" y="394.2">─</text>
<text x="273.6" y="394.2">─</text>
<text x="283.2" y="394.2">┘</text>
<text x="465.6" y="394.2">└</text>
<text x="475.2" y="394.2">─</text>
<text x="484.8" y="394.2">─</text>
<text x="494.4" y="394.2">─</text>
<text x="504.0" y="394.2">─</text>
<text x="513.6" y="394.2">─</text>
<text x="523.2" y="394.2">─</text>
<text x="532.8" y="394.2">─</text>
<text x="542.4" y="394.2">─</text>
<text x="552.0" y="394.2">─</text>
<text x="561.6" y="394.2">─</text>
<text x="571.2" y="394.2">─</text>
<text x="580.8" y="394.2">┘</text>
<text x="4.8" y="432.2">O</text>
<text x="14.4" y="432.2">r</text>
<text x="24.0" y="432.2">e</text>
<text x="33.6" y="432.2">n</text>
<text x="43.2" y="432.2">d</text>
<text x="52.8" y="432.2">y</text>
<text x="72.0" y="432.2">t</text>
<text x="81.6" y="432.2">h</text>
<text x="91.2" y="432.2">e</text>
<text x="110.4" y="432.2">S</text>
<text x="120.0" y="432.2">o</text>
<text x="129.6" y="432.2">u</text>
<text x="139.2" y="432.2">r</text>
<text x="148.8" y="432.2">c</text>
<text x="158.4" y="432.2">e</text>
<text x="168.0" y="432.2">r</text>
<text x="177.6" y="432.2">e</text>
<text x="187.2" y="432.2">s</text>
<text x="196.8" y="432.2">s</text>
<text x="264.0" y="432.2">S</text>
<text x="273.6" y="432.2">t</text>
<text x="283.2" y="432.2">:</text>
<text x="292.8" y="432.2">1</text>
<text x="302.4" y="432.2">8</text>
<text x="312.0" y="432.2">/</text>
<text x="321.6" y="432.2">5</text>
<text x="331.2" y="432.2">1</text>
<text x="350.4" y="432.2">D</text>
<text x="360.0" y="432.2">x</text>
<text x="369.6" y="432.2">:</text>
<text x="379.2" y="432.2">2</text>
<text x="388.8" y="432.2">1</text>
<text x="408.0" y="432.2">C</text>
<text x="417.6" y="432.2">o</text>
<text x="427.2" y="432.2">:</text>
<text x="436.8" y="432.2">1</text>
<text x="446.4" y="432.2">5</text>
<text x="465.6" y="432.2">I</text>
<text x="475.2" y="432.2">n</text>
<text x="484.8" y="432.2">:</text>
<text x="494.4" y="432.2">2</text>
<text x="504.0" y="432.2">2</text>
<text x="523.2" y="432.2">W</text>
<text x="532.8" y="432.2">i</text>
<text x="542.4" y="432.2">:</text>
<text x="552.0" y="432.2">2</text>
<text x="561.6" y="432.2">2</text>
<text x="580.8" y="432.2">C</text>
<text x="590.4" y="432.2">h</text>
<text x="600.0" y="432.2">:</text>
<text x="609.6" y="432.2">1</text>
<text x="619.2" y="432.2">3</text>
<text x="648.0" y="432.2">C</text>
<text x="657.6" y="432.2">h</text>
<text x="667.2" y="432.2">a</text>
<text x="676.8" y="432.2">o</text>
<text x="686.4" y="432.2">t</text>
<text x="696.0" y="432.2">i</text>
<text x="705.6" y="432.2">c</text>
<text x="4.8" y="451.2">D</text>
<text x="14.4" y="451.2">l</text>
<text x="24.0" y="451.2">v</text>
<text x="33.6" y="451.2">l</text>
<text x="43.2" y="451.2">:</text>
<text x="52.8" y="451.2">5</text>
<text x="62.4" y="451.2">0</text>
<text x="81.6" y="451.2">$</text>
<text x="91.2" y="451.2">:</text>
<text x="100.8" y="451.2">0</text>
<text x="129.6" y="451.2">H</text>
<text x="139.2" y="451.2">P</text>
<text x="148.8" y="451.2">:</text>
<text x="158.4" y="451.2">1</text>
<text x="168.0" y="451.2">6</text>
<text x="177.6" y="451.2">7</text>
<text x="187.2" y="451.2">(</text>
<text x="196.8" y="451.2">1</text>
<text x="206.4" y="451.2">6</text>
<text x="216.0" y="451.2">7</text>
<text x="225.6" y="451.2">)</text>
<text x="244.8" y="451.2">P</text>
<text x="254.4" y="451.2">w</text>
<text x="264.0" y="451.2">:</text>
<text x="273.6" y="451.2">3</text>
<text x="283.2" y="451.2">7</text>
<text x="292.8" y="451.2">(</text>
<text x="302.4" y="451.2">2</text>
<text x="312.0" y="451.2">3</text>
<text x="321.6" y="451.2">1</text>
<text x="331.2" y="451.2">)</text>
<text x="350.4" y="451.2">A</text>
<text x="360.0" y="451.2">C</text>
<text x="369.6" y="451.2">:</text>
<text x="379.2" y="451.2">-</text>
<text x="388.8" y="451.2">2</text>
<text x="398.4" y="451.2">3</text>
<text x="417.6" y="451.2">X</text>
<text x="427.2" y="451.2">p</text>
<text x="436.8" y="451.2">:</text>
<text x="446.4" y="451.2">1</text>
<text x="456.0" y="451.2">8</text>
<text x="465.6" y="451.2">/</text>
<text x="475.2" y="451.2">1</text>
<text x="484.8" y="451.2">3</text>
<text x="494.4" y="451.2">1</text>
<text x="504.0" y="451.2">2</text>
<text x="513.6" y="451.2">8</text>
<text x="523.2" y="451.2">4</text>
<text x="532.8" y="451.2">5</text>
<text x="552.0" y="451.2">T</text>
<text x="561.6" y="451.2">:</text>
<text x="571.2" y="451.2">4</text>
<text x="580.8" y="451.2">3</text>
<text x="590.4" y="451.2">5</text>
<text x="600.0" y="451.2">6</text>
<text x="609.6" y="451.2">5</text>
</g>
<g fill="#555" text-anchor="middle">
<text x="465.6" y="90.2">·</text>
<text x="475.2" y="90.2">·</text>
<text x="484.8" y="90.2">·</text>
<text x="494.4" y="90.2">·</text>
<text x="513.6" y="90.2">·</text>
<text x="523.2" y="90.2">·</text>
<text x="532.8" y="90.2">·</text>
<text x="542.4" y="90.2">·</text>
<text x="552.0" y="90.2">·</text>
<text x="561.6" y="90.2">·</text>
<text x="571.2" y="90.2">·</text>
<text x="283.2" y="109.2">W</text>
<text x="465.6" y="109.2">·</text>
<text x="475.2" y="109.2">·</text>
<text x="484.8" y="109.2">·</text>
<text x="494.4" y="109.2">·</text>
<text x="504.0" y="109.2">·</text>
<text x="513.6" y="109.2">·</text>
<text x="523.2" y="109.2">·</text>
<text x="532.8" y="109.2">·</text>
<text x="542.4" y="109.2">·</text>
<text x="552.0" y="109.2">·</text>
<text x="561.6" y="109.2">·</text>
<text x="571.2" y="109.2">·</text>
<text x="273.6" y="128.2">Z</text>
<text x="427.2" y="128.2">·</text>
<text x="436.8" y="128.2">·</text>
<text x="446.4" y="128.2">·</text>
<text x="456.0" y="128.2">·</text>
<text x="465.6" y="128.2">·</text>
<text x="475.2" y="128.2">·</text>
<text x="484.8" y="128.2">·</text>
<text x="494.4" y="128.2">·</text>
<text x="504.0" y="128.2">·</text>
<text x="513.6" y="128.2">·</text>
<text x="523.2" y="128.2">·</text>
<text x="552.0" y="128.2">·</text>
<text x="571.2" y="128.2">·</text>
<text x="580.8" y="128.2">·</text>
<text x="590.4" y="128.2">·</text>
<text x="600.0" y="128.2">·</text>
<text x="609.6" y="128.2">·</text>
<text x="628.8" y="128.2">·</text>
<text x="72.0" y="147.2">·</text>
<text x="81.6" y="147.2">·</text>
<text x="91.2" y="147.2">·</text>
<text x="100.8" y="147.2">·</text>
<text x="110.4" y="147.2">·</text>
<text x="120.0" y="147.2">·</text>
<text x="129.6" y="147.2">·</text>
<text x="292.8" y="147.2">B</text>
<text x="427.2" y="147.2">·</text>
<text x="436.8" y="147.2">·</text>
<text x="446.4" y="147.2">·</text>
<text x="456.0" y="147.2">·</text>
<text x="465.6" y="147.2">·</text>
<text x="475.2" y="147.2">·</text>
<text x="484.8" y="147.2">·</text>
<text x="600.0" y="147.2">·</text>
<text x="609.6" y="147.2">·</text>
<text x="628.8" y="147.2">·</text>
<text x="72.0" y="166.2">·</text>
<text x="81.6" y="166.2">·</text>
<text x="273.6" y="166.2">W</text>
<text x="321.6" y="166.2">W</text>
<text x="340.8" y="166.2">·</text>
<text x="350.4" y="166.2">·</text>
<text x="360.0" y="166.2">·</text>
<text x="369.6" y="166.2">·</text>
<text x="379.2" y="166.2">·</text>
<text x="408.0" y="166.2">·</text>
<text x="417.6" y="166.2">·</text>
<text x="427.2" y="166.2">·</text>
<text x="436.8" y="166.2">·</text>
<text x="446.4" y="166.2">·</text>
<text x="456.0" y="166.2">·</text>
<text x="465.6" y="166.2">·</text>
<text x="475.2" y="166.2">·</text>
<text x="484.8" y="166.2">·</text>
<text x="609.6" y="166.2">·</text>
<text x="619.2" y="166.2">·</text>
<text x="628.8" y="166.2">·</text>
<text x="638.4" y="166.2">·</text>
<text x="648.0" y="166.2">·</text>
<text x="657.6" y="166.2">·</text>
<text x="72.0" y="185.2">·</text>
<text x="81.6" y="185.2">·</text>
<text x="100.8" y="185.2">·</text>
<text x="110.4" y="185.2">·</text>
<text x="120.0" y="185.2">·</text>
<text x="129.6" y="185.2">·</text>
<text x="139.2" y="185.2">·</text>
<text x="148.8" y="185.2">·</text>
<text x="158.4" y="185.2">·</text>
<text x="264.0" y="185.2">B</text>
<text x="273.6" y="185.2">W</text>
<text x="312.0" y="185.2">W</text>
<text x="321.6" y="185.2">W</text>
<text x="408.0" y="185.2">·</text>
<text x="417.6" y="185.2">·</text>
<text x="427.2" y="185.2">·</text>
<text x="436.8" y="185.2">·</text>
<text x="446.4" y="185.2">·</text>
<text x="456.0" y="185.2">·</text>
<text x="465.6" y="185.2">·</text>
<text x="475.2" y="185.2">·</text>
<text x="484.8" y="185.2">·</text>
<text x="513.6" y="185.2">·</text>
<text x="523.2" y="185.2">·</text>
<text x="532.8" y="185.2">·</text>
<text x="542.4" y="185.2">·</text>
<text x="552.0" y="185.2">·</text>
<text x="561.6" y="185.2">·</text>
<text x="571.2" y="185.2">·</text>
<text x="609.6" y="185.2">·</text>
<text x="619.2" y="185.2">·</text>
<text x="628.8" y="185.2">·</text>
<text x="638.4" y="185.2">·</text>
<text x="648.0" y="185.2">·</text>
<text x="657.6" y="185.2">·</text>
<text x="168.0" y="204.2">·</text>
<text x="254.4" y="204.2">Z</text>
<text x="283.2" y="204.2">Z</text>
<text x="292.8" y="204.2">W</text>
<text x="302.4" y="204.2">W</text>
<text x="379.2" y="204.2">·</text>
<text x="388.8" y="204.2">·</text>
<text x="398.4" y="204.2">·</text>
<text x="408.0" y="204.2">·</text>
<text x="417.6" y="204.2">·</text>
<text x="427.2" y="204.2">B</text>
<text x="436.8" y="204.2">·</text>
<text x="446.4" y="204.2">·</text>
<text x="475.2" y="204.2">·</text>
<text x="484.8" y="204.2">·</text>
<text x="513.6" y="204.2">·</text>
<text x="523.2" y="204.2">·</text>
<text x="532.8" y="204.2">·</text>
<text x="561.6" y="204.2">·</text>
<text x="571.2" y="204.2">·</text>
<text x="600.0" y="204.2">·</text>
<text x="619.2" y="204.2">·</text>
<text x="628.8" y="204.2">·</text>
<text x="638.4" y="204.2">·</text>
<text x="648.0" y="204.2">·</text>
<text x="657.6" y="204.2">·</text>
<text x="667.2" y="204.2">·</text>
<text x="676.8" y="204.2">·</text>
<text x="91.2" y="223.2">·</text>
<text x="100.8" y="223.2">·</text>
<text x="110.4" y="223.2">·</text>
<text x="120.0" y="223.2">·</text>
<text x="129.6" y="223.2">·</text>
<text x="139.2" y="223.2">·</text>
<text x="158.4" y="223.2">·</text>
<text x="168.0" y="223.2">·</text>
<text x="187.2" y="223.2">·</text>
<text x="196.8" y="223.2">·</text>
<text x="206.4" y="223.2">·</text>
<text x="216.0" y="223.2">·</text>
<text x="283.2" y="223.2">W</text>
<text x="408.0" y="223.2">·</text>
<text x="417.6" y="223.2">·</text>
<text x="427.2" y="223.2">·</text>
<text x="436.8" y="223.2">·</text>
<text x="446.4" y="223.2">·</text>
<text x="456.0" y="223.2">·</text>
<text x="465.6" y="223.2">·</text>
<text x="475.2" y="223.2">·</text>
<text x="484.8" y="223.2">·</text>
<text x="513.6" y="223.2">·</text>
<text x="523.2" y="223.2">·</text>
<text x="532.8" y="223.2">·</text>
<text x="542.4" y="223.2">·</text>
<text x="552.0" y="223.2">·</text>
<text x="561.6" y="223.2">·</text>
<text x="571.2" y="223.2">·</text>
<text x="600.0" y="223.2">·</text>
<text x="609.6" y="223.2">·</text>
<text x="619.2" y="223.2">·</text>
<text x="628.8" y="223.2">·</text>
<text x="638.4" y="223.2">·</text>
<text x="657.6" y="223.2">·</text>
<text x="667.2" y="223.2">·</text>
<text x="676.8" y="223.2">·</text>
<text x="91.2" y="242.2">·</text>
<text x="100.8" y="242.2">·</text>
<text x="254.4" y="242.2">W</text>
<text x="264.0" y="242.2">W</text>
<text x="273.6" y="242.2">W</text>
<text x="292.8" y="242.2">W</text>
<text x="312.0" y="242.2">B</text>
<text x="408.0" y="242.2">·</text>
<text x="417.6" y="242.2">·</text>
<text x="427.2" y="242.2">·</text>
<text x="436.8" y="242.2">·</text>
<text x="446.4" y="242.2">·</text>
<text x="456.0" y="242.2">·</text>
<text x="465.6" y="242.2">·</text>
<text x="475.2" y="242.2">·</text>
<text x="484.8" y="242.2">·</text>
<text x="513.6" y="242.2">·</text>
<text x="523.2" y="242.2">·</text>
<text x="532.8" y="242.2">·</text>
<text x="542.4" y="242.2">·</text>
<text x="552.0" y="242.2">·</text>
<text x="561.6" y="242.2">·</text>
<text x="571.2" y="242.2">·</text>
<text x="600.0" y="242.2">·</text>
<text x="609.6" y="242.2">·</text>
<text x="628.8" y="242.2">·</text>
<text x="638.4" y="242.2">·</text>
<text x="648.0" y="242.2">·</text>
<text x="657.6" y="242.2">·</text>
<text x="667.2" y="242.2">·</text>
<text x="676.8" y="242.2">·</text>
<text x="91.2" y="261.2">·</text>
<text x="100.8" y="261.2">·</text>
<text x="120.0" y="261.2">·</text>
<text x="129.6" y="261.2">·</text>
<text x="139.2" y="261.2">·</text>
<text x="148.8" y="261.2">·</text>
<text x="158.4" y="261.2">·</text>
<text x="168.0" y="261.2">·</text>
<text x="177.6" y="261.2">·</text>
<text x="187.2" y="261.2">·</text>
<text x="196.8" y="261.2">·</text>
<text x="206.4" y="261.2">·</text>
<text x="216.0" y="261.2">·</text>
<text x="225.6" y="261.2">·</text>
<text x="235.2" y="261.2">·</text>
<text x="264.0" y="261.2">·</text>
<text x="273.6" y="261.2">·</text>
<text x="283.2" y="261.2">·</text>
<text x="408.0" y="261.2">·</text>
<text x="417.6" y="261.2">·</text>
<text x="427.2" y="261.2">·</text>
<text x="436.8" y="261.2">·</text>
<text x="446.4" y="261.2">·</text>
<text x="456.0" y="261.2">·</text>
<text x="465.6" y="261.2">·</text>
<text x="475.2" y="261.2">·</text>
<text x="484.8" y="261.2">·</text>
<text x="600.0" y="261.2">·</text>
<text x="609.6" y="261.2">·</text>
<text x="628.8" y="261.2">·</text>
<text x="638.4" y="261.2">·</text>
<text x="648.0" y="261.2">·</text>
<text x="657.6" y="261.2">·</text>
<text x="667.2" y="261.2">·</text>
<text x="676.8" y="261.2">·</text>
<text x="408.0" y="280.2">·</text>
<text x="417.6" y="280.2">·</text>
<text x="436.8" y="280.2">·</text>
<text x="446.4" y="280.2">·</text>
<text x="456.0" y="280.2">·</text>
<text x="465.6" y="280.2">·</text>
<text x="475.2" y="280.2">·</text>
<text x="600.0" y="280.2">·</text>
<text x="609.6" y="280.2">·</text>
<text x="619.2" y="280.2">·</text>
<text x="628.8" y="280.2">·</text>
<text x="638.4" y="280.2">·</text>
<text x="648.0" y="280.2">·</text>
<text x="657.6" y="280.2">·</text>
<text x="81.6" y="299.2">·</text>
<text x="91.2" y="299.2">·</text>
<text x="177.6" y="299.2">·</text>
<text x="187.2" y="299.2">·</text>
<text x="196.8" y="299.2">·</text>
<text x="206.4" y="299.2">·</text>
<text x="216.0" y="299.2">·</text>
<text x="225.6" y="299.2">·</text>
<text x="264.0" y="299.2">·</text>
<text x="273.6" y="299.2">·</text>
<text x="283.2" y="299.2">·</text>
<text x="408.0" y="299.2">·</text>
<text x="417.6" y="299.2">·</text>
<text x="427.2" y="299.2">·</text>
<text x="436.8" y="299.2">·</text>
<text x="446.4" y="299.2">·</text>
<text x="456.0" y="299.2">·</text>
<text x="465.6" y="299.2">·</text>
<text x="475.2" y="299.2">·</text>
<text x="484.8" y="299.2">·</text>
<text x="494.4" y="299.2">·</text>
<text x="504.0" y="299.2">·</text>
<text x="513.6" y="299.2">·</text>
<text x="523.2" y="299.2">·</text>
<text x="532.8" y="299.2">·</text>
<text x="542.4" y="299.2">·</text>
<text x="552.0" y="299.2">·</text>
<text x="561.6" y="299.2">·</text>
<text x="571.2" y="299.2">·</text>
<text x="590.4" y="299.2">·</text>
<text x="600.0" y="299.2">·</text>
<text x="609.6" y="299.2">·</text>
<text x="619.2" y="299.2">·</text>
<text x="628.8" y="299.2">·</text>
<text x="638.4" y="299.2">·</text>
<text x="648.0" y="299.2">·</text>
<text x="657.6" y="299.2">·</text>
<text x="72.0" y="318.2">·</text>
<text x="81.6" y="318.2">·</text>
<text x="91.2" y="318.2">·</text>
<text x="196.8" y="318.2">·</text>
<text x="206.4" y="318.2">·</text>
<text x="216.0" y="318.2">·</text>
<text x="264.0" y="318.2">·</text>
<text x="273.6" y="318.2">·</text>
<text x="283.2" y="318.2">·</text>
<text x="436.8" y="318.2">·</text>
<text x="446.4" y="318.2">·</text>
<text x="456.0" y="318.2">·</text>
<text x="465.6" y="318.2">·</text>
<text x="475.2" y="318.2">B</text>
<text x="484.8" y="318.2">·</text>
<text x="494.4" y="318.2">·</text>
<text x="513.6" y="318.2">·</text>
<text x="523.2" y="318.2">·</text>
<text x="532.8" y="318.2">·</text>
<text x="542.4" y="318.2">·</text>
<text x="552.0" y="318.2">·</text>
<text x="571.2" y="318.2">·</text>
<text x="580.8" y="318.2">·</text>
<text x="590.4" y="318.2">·</text>
<text x="600.0" y="318.2">·</text>
<text x="609.6" y="318.2">·</text>
<text x="619.2" y="318.2">·</text>
<text x="628.8" y="318.2">·</text>
<text x="91.2" y="337.2">·</text>
<text x="129.6" y="337.2">·</text>
<text x="196.8" y="337.2">·</text>
<text x="206.4" y="337.2">·</text>
<text x="216.0" y="337.2">·</text>
<text x="225.6" y="337.2">·</text>
<text x="235.2" y="337.2">·</text>
<text x="244.8" y="337.2">·</text>
<text x="254.4" y="337.2">·</text>
<text x="264.0" y="337.2">·</text>
<text x="283.2" y="337.2">·</text>
<text x="436.8" y="337.2">·</text>
<text x="446.4" y="337.2">·</text>
<text x="456.0" y="337.2">·</text>
<text x="465.6" y="337.2">·</text>
<text x="475.2" y="337.2">·</text>
<text x="484.8" y="337.2">·</text>
<text x="513.6" y="337.2">·</text>
<text x="523.2" y="337.2">·</text>
<text x="532.8" y="337.2">·</text>
<text x="542.4" y="337.2">·</text>
<text x="552.0" y="337.2">·</text>
<text x="561.6" y="337.2">·</text>
<text x="571.2" y="337.2">·</text>
<text x="580.8" y="337.2">·</text>
<text x="590.4" y="337.2">·</text>
<text x="600.0" y="337.2">·</text>
<text x="609.6" y="337.2">·</text>
<text x="619.2" y="337.2">·</text>
<text x="628.8" y="337.2">·</text>
<text x="91.2" y="356.2">·</text>
<text x="100.8" y="356.2">·</text>
<text x="110.4" y="356.2">·</text>
<text x="120.0" y="356.2">·</text>
<text x="129.6" y="356.2">·</text>
<text x="254.4" y="356.2">·</text>
<text x="264.0" y="356.2">·</text>
<text x="273.6" y="356.2">·</text>
<text x="475.2" y="356.2">·</text>
<text x="494.4" y="356.2">·</text>
<text x="504.0" y="356.2">·</text>
<text x="513.6" y="356.2">·</text>
<text x="523.2" y="356.2">·</text>
<text x="532.8" y="356.2">·</text>
<text x="542.4" y="356.2">·</text>
<text x="552.0" y="356.2">·</text>
<text x="561.6" y="356.2">·</text>
<text x="571.2" y="356.2">·</text>
<text x="91.2" y="375.2">·</text>
<text x="100.8" y="375.2">·</text>
<text x="110.4" y="375.2">·</text>
<text x="120.0" y="375.2">·</text>
<text x="129.6" y="375.2">·</text>
<text x="254.4" y="375.2">·</text>
<text x="264.0" y="375.2">·</text>
<text x="273.6" y="375.2">·</text>
<text x="475.2" y="375.2">·</text>
<text x="484.8" y="375.2">·</text>
<text x="494.4" y="375.2">·</text>
<text x="504.0" y="375.2">·</text>
<text x="513.6" y="375.2">·</text>
<text x="523.2" y="375.2">·</text>
<text x="532.8" y="375.2">·</text>
<text x="542.4" y="375.2">·</text>
<text x="552.0" y="375.2">·</text>
<text x="561.6" y="375.2">·</text>
<text x="571.2" y="375.2">·</text>
</g>
<g fill="#0f0" text-anchor="middle">
<text x="504.0" y="90.2">!</text>
</g>
<g fill="#a50" text-anchor="middle">
<text x="273.6" y="109.2">Z</text>
<text x="292.8" y="109.2">(</text>
<text x="283.2" y="128.2">(</text>
<text x="273.6" y="147.2">%</text>
<text x="302.4" y="147.2">%</text>
<text x="312.0" y="147.2">Z</text>
<text x="120.0" y="166.2">▒</text>
<text x="244.8" y="166.2">%</text>
<text x="254.4" y="166.2">%</text>
<text x="283.2" y="166.2">Z</text>
<text x="292.8" y="166.2">%</text>
<text x="312.0" y="166.2">%</text>
<text x="331.2" y="166.2">▒</text>
<text x="283.2" y="185.2">%</text>
<text x="292.8" y="185.2">%</text>
<text x="302.4" y="185.2">%</text>
<text x="379.2" y="185.2">┊</text>
<text x="244.8" y="204.2">%</text>
<text x="273.6" y="204.2">Z</text>
<text x="235.2" y="223.2">%</text>
<text x="244.8" y="223.2">%</text>
<text x="254.4" y="223.2">%</text>
<text x="292.8" y="223.2">%</text>
<text x="312.0" y="223.2">Z</text>
<text x="129.6" y="242.2">┊</text>
<text x="168.0" y="242.2">┊</text>
<text x="206.4" y="242.2">▒</text>
<text x="302.4" y="242.2">%</text>
<text x="504.0" y="242.2">┈</text>
<text x="312.0" y="261.2">(</text>
<text x="100.8" y="280.2">┊</text>
<text x="196.8" y="280.2">┊</text>
<text x="273.6" y="280.2">▒</text>
</g>
<g fill="#00a" text-anchor="middle">
<text x="302.4" y="109.2">Z</text>
</g>
<g fill="#0a0" text-anchor="middle">
<text x="292.8" y="128.2">Z</text>
<text x="283.2" y="242.2">Z</text>
<text x="254.4" y="261.2">Z</text>
</g>
<g fill="#fff" text-anchor="middle">
<text x="312.0" y="128.2">Z</text>
<text x="532.8" y="128.2">@</text>
<text x="561.6" y="128.2">@</text>
<text x="321.6" y="147.2">Z</text>
<text x="619.2" y="147.2">@</text>
<text x="388.8" y="166.2">?</text>
<text x="254.4" y="185.2">Z</text>
<text x="264.0" y="204.2">Z</text>
<text x="552.0" y="204.2">@</text>
<text x="609.6" y="204.2">@</text>
<text x="264.0" y="223.2">Z</text>
<text x="619.2" y="242.2">@</text>
<text x="494.4" y="261.2">!</text>
<text x="619.2" y="261.2">@</text>
<text x="427.2" y="280.2">?</text>
<text x="580.8" y="299.2">@</text>
<text x="225.6" y="318.2">?</text>
<text x="504.0" y="318.2">@</text>
<text x="561.6" y="318.2">@</text>
<text x="273.6" y="337.2">?</text>
<text x="484.8" y="356.2">?</text>
</g>
<g fill="#a0a" text-anchor="middle">
<text x="542.4" y="128.2">!</text>
</g>
<g fill="#a00" text-anchor="middle">
<text x="619.2" y="128.2">&amp;</text>
<text x="168.0" y="185.2">&amp;</text>
<text x="600.0" y="185.2">L</text>
<text x="456.0" y="204.2">&amp;</text>
<text x="648.0" y="223.2">&amp;</text>
<text x="292.8" y="261.2">&amp;</text>
</g>
<g fill="#cc4040" text-anchor="middle">
<text x="494.4" y="147.2">^</text>
<text x="504.0" y="147.2">^</text>
<text x="513.6" y="147.2">^</text>
<text x="523.2" y="147.2">^</text>
<text x="532.8" y="147.2">^</text>
<text x="542.4" y="147.2">^</text>
<text x="552.0" y="147.2">^</text>
<text x="561.6" y="147.2">^</text>
<text x="571.2" y="147.2">^</text>
<text x="580.8" y="147.2">^</text>
<text x="494.4" y="166.2">^</text>
<text x="590.4" y="166.2">^</text>
<text x="494.4" y="185.2">^</text>
<text x="590.4" y="185.2">^</text>
<text x="494.4" y="204.2">^</text>
<text x="590.4" y="204.2">^</text>
<text x="494.4" y="223.2">^</text>
<text x="590.4" y="223.2">^</text>
<text x="494.4" y="242.2">^</text>
<text x="590.4" y="242.2">^</text>
<text x="590.4" y="261.2">^</text>
<text x="494.4" y="280.2">^</text>
<text x="504.0" y="280.2">^</text>
<text x="513.6" y="280.2">^</text>
<text x="523.2" y="280.2">^</text>
<text x="532.8" y="280.2">^</text>
<text x="542.4" y="280.2">^</text>
<text x="552.0" y="280.2">^</text>
<text x="561.6" y="280.2">^</text>
<text x="571.2" y="280.2">^</text>
<text x="580.8" y="280.2">^</text>
<text x="590.4" y="280.2">^</text>
<text x="100.8" y="318.2">^</text>
<text x="504.0" y="337.2">^</text>
</g>
<g fill="#bfbfbf" text-anchor="middle">
<text x="590.4" y="147.2">^</text>
<text x="264.0" y="166.2">^</text>
<text x="600.0" y="166.2">^</text>
<text x="465.6" y="204.2">^</text>
</g>
<g fill="#ffffff" text-anchor="middle">
<text x="158.4" y="204.2">f</text>
<text x="110.4" y="318.2">@</text>
</g>
<g fill="#f5f" text-anchor="middle">
<text x="542.4" y="204.2">_</text>
<text x="62.4" y="318.2">!</text>
</g>
<g fill="#0aa" text-anchor="middle">
<text x="484.8" y="280.2">[</text>
<text x="494.4" y="337.2">)</text>
</g>
</svg>