<svg xmlns="http://www.w3.org/2000/svg" viewBox="0 0 760 681" role="img" aria-label="Gehennom map" style="display:block;margin:0 auto;max-width:760px;width:100%;height:auto;font-family:'EB Garamond','Garamond','Georgia',serif;font-feature-settings:'liga' 0, 'dlig' 0;"><defs><marker id="arr" viewBox="0 0 10 10" refX="9" refY="5" markerWidth="6" markerHeight="6" orient="auto-start-reverse"><path d="M 0 0 L 10 5 L 0 10 z" fill="black"/></marker></defs><line x1="380" y1="0" x2="380" y2="39" stroke="black" stroke-width="2.5" fill="none"/><line x1="380" y1="0" x2="380" y2="625" stroke="black" stroke-width="2.5" fill="none"/><rect x="40" y="0" width="680" height="39" rx="4" fill="white" stroke="black" stroke-width="2"/><text x="380" y="26" font-size="22" font-weight="800" fill="black" text-anchor="middle" letter-spacing="0.08em">GEHENNOM</text><line x1="150" y1="288" x2="150" y2="306" stroke="black" stroke-width="2" fill="none"/><rect x="290" y="53" width="180" height="40" rx="6" fill="white" stroke="black" stroke-width="1.5"/><text x="380" y="70" font-size="15" font-weight="600" fill="black" text-anchor="middle">Valley of the Dead</text><text x="380" y="87" font-size="12" font-style="italic" fill="black" text-anchor="middle">Gehennom's entrance</text><rect x="290" y="141" width="180" height="32" rx="6" fill="white" stroke="black" stroke-width="1.5"/><text x="380" y="162" font-size="15" font-weight="600" fill="black" text-anchor="middle">Asmodeus's Lair</text><rect x="290" y="191" width="180" height="32" rx="6" fill="white" stroke="black" stroke-width="1.5"/><text x="380" y="212" font-size="15" font-weight="600" fill="black" text-anchor="middle">Juiblex's Swamp</text><rect x="290" y="251" width="180" height="32" rx="6" fill="white" stroke="black" stroke-width="1.5"/><text x="380" y="272" font-size="15" font-weight="600" fill="black" text-anchor="middle">Baalzebub's Lair</text><rect x="60" y="248" width="180" height="40" rx="6" fill="white" stroke="black" stroke-width="1.5"/><text x="150" y="265" font-size="15" font-weight="600" fill="black" text-anchor="middle">Vlad the Impaler</text><text x="150" y="282" font-size="12" font-style="italic" fill="black" text-anchor="middle"><tspan font-style="normal">★ </tspan>Candelabrum</text><rect x="60" y="306" width="180" height="32" rx="6" fill="white" stroke="black" stroke-width="1.5"/><text x="150" y="327" font-size="15" font-weight="600" fill="black" text-anchor="middle">Vlad's Tower</text><rect x="290" y="351" width="180" height="40" rx="6" fill="white" stroke="black" stroke-width="1.5"/><text x="380" y="368" font-size="15" font-weight="600" fill="black" text-anchor="middle">Orcus Town</text><text x="380" y="385" font-size="12" font-style="italic" fill="black" text-anchor="middle">Wand of Orcus · magic lamp/marker</text><rect x="290" y="419" width="180" height="32" rx="6" fill="white" stroke="black" stroke-width="1.5"/><text x="380" y="440" font-size="15" font-weight="600" fill="black" text-anchor="middle">Wizard's Tower</text><rect x="290" y="469" width="180" height="40" rx="6" fill="white" stroke="black" stroke-width="1.5"/><text x="380" y="486" font-size="15" font-weight="600" fill="black" text-anchor="middle">Wizard of Yendor</text><text x="380" y="503" font-size="12" font-style="italic" fill="black" text-anchor="middle"><tspan font-style="normal">★ </tspan>Book of the Dead</text><rect x="230" y="567" width="300" height="58" rx="8" fill="white" stroke="black" stroke-width="2.5"/><text x="380" y="593" font-size="17" font-weight="600" fill="black" text-anchor="middle">Moloch's Sanctum</text><text x="380" y="610" font-size="14" font-style="italic" fill="black" text-anchor="middle">the Amulet of Yendor</text><line x1="380" y1="322" x2="240" y2="322" stroke="black" stroke-width="1.5" marker-end="url(#arr)" fill="none"/><text x="275" y="318" font-size="11" font-style="italic" fill="black" text-anchor="middle">up</text><circle cx="380" cy="322" r="4" fill="black"/><circle cx="380" cy="102.0" r="4" fill="black"/><circle cx="380" cy="112.0" r="4" fill="black"/><circle cx="380" cy="122.0" r="4" fill="black"/><circle cx="380" cy="132.0" r="4" fill="black"/><circle cx="380" cy="182.0" r="4" fill="black"/><circle cx="380" cy="232.0" r="4" fill="black"/><circle cx="380" cy="242.0" r="4" fill="black"/><circle cx="380" cy="292.0" r="4" fill="black"/><circle cx="380" cy="302.0" r="4" fill="black"/><circle cx="380" cy="312.0" r="4" fill="black"/><circle cx="150" cy="297.0" r="4" fill="black"/><circle cx="380" cy="332.0" r="4" fill="black"/><circle cx="380" cy="342.0" r="4" fill="black"/><circle cx="380" cy="400.0" r="4" fill="black"/><circle cx="380" cy="410.0" r="4" fill="black"/><circle cx="380" cy="460.0" r="4" fill="black"/><circle cx="380" cy="518.0" r="4" fill="black"/><circle cx="380" cy="528.0" r="4" fill="black"/><circle cx="380" cy="538.0" r="4" fill="black"/><circle cx="380" cy="548.0" r="4" fill="black"/><circle cx="380" cy="558.0" r="4" fill="black"/><line x1="380" y1="631" x2="380" y2="681" stroke="black" stroke-width="2.5" stroke-dasharray="7,5" fill="none"/><text x="400" y="661" font-size="15" font-weight="600" font-style="italic" fill="black">now go <tspan style="font-weight:800;font-size:17px">ALL</tspan> the way back up...</text></svg>