<?xml version="1.0" encoding="UTF-8"?>
<svg xmlns="http://www.w3.org/2000/svg" xmlns:xlink="http://www.w3.org/1999/xlink" width="789.746pt" height="594.0pt" viewBox="0 0 789.746 594.0" style="font-feature-settings:'liga' 0, 'dlig' 0;">
<rect x="0" y="0" width="789.746" height="594.0" fill="white"/>
<svg x="57.892118164676276" y="22.536" width="262.21576367064745" height="210.80767316153367" viewBox="0 0 760 611" preserveAspectRatio="xMidYMin meet" overflow="visible"><defs><marker id="arr" viewBox="0 0 10 10" refX="9" refY="5" markerWidth="6" markerHeight="6" orient="auto-start-reverse"><path d="M 0 0 L 10 5 L 0 10 z" fill="#5a5a5a"/></marker></defs><line x1="380" y1="55" x2="380" y2="611" stroke="#B5651D" stroke-width="2.5" fill="none"/><rect x="40" y="0" width="680" height="39" rx="4" fill="#B5651D"/><text x="380" y="26" font-size="22" font-weight="600" fill="#fff" text-anchor="middle" letter-spacing="0.08em">DUNGEONS OF DOOM</text><line x1="150" y1="140" x2="150" y2="246" stroke="#5B8E3A" stroke-width="2" fill="none"/><line x1="630" y1="166" x2="630" y2="194" stroke="#B58A1A" stroke-width="2" fill="none"/><line x1="630" y1="305" x2="630" y2="343" stroke="#3B6FA0" stroke-width="2" fill="none"/><rect x="290" y="55" width="180" height="40" rx="6" fill="#FAF3E0" stroke="#B5651D" stroke-width="1.5"/><text x="380" y="72" font-size="15" font-weight="600" fill="#1f2933" text-anchor="middle">The Dungeon Entrance</text><text x="380" y="89" font-size="12" font-style="italic" fill="#555" text-anchor="middle">up-stair to exit</text><rect x="60" y="108" width="180" height="32" rx="6" fill="#E8F4DC" stroke="#5B8E3A" stroke-width="1.5"/><text x="150" y="129" font-size="15" font-weight="600" fill="#1f2933" text-anchor="middle">Gnomish Mines</text><rect x="60" y="168" width="180" height="40" rx="6" fill="#E8F4DC" stroke="#5B8E3A" stroke-width="1.5"/><text x="150" y="185" font-size="15" font-weight="600" fill="#1f2933" text-anchor="middle">Minetown</text><text x="150" y="202" font-size="12" font-style="italic" fill="#555" text-anchor="middle">shops, temple</text><rect x="60" y="246" width="180" height="40" rx="6" fill="#E8F4DC" stroke="#5B8E3A" stroke-width="1.5"/><text x="150" y="263" font-size="15" font-weight="600" fill="#1f2933" text-anchor="middle">Mine's End</text><text x="150" y="280" font-size="12" font-style="italic" fill="#555" text-anchor="middle">luckstone</text><rect x="290" y="163" width="180" height="40" rx="6" fill="#FAF3E0" stroke="#B5651D" stroke-width="1.5"/><text x="380" y="180" font-size="15" font-weight="600" fill="#1f2933" text-anchor="middle">The Oracle</text><text x="380" y="197" font-size="12" font-style="italic" fill="#555" text-anchor="middle">paid hints</text><rect x="540" y="126" width="180" height="40" rx="6" fill="#FFF4CC" stroke="#B58A1A" stroke-width="1.5"/><text x="630" y="143" font-size="15" font-weight="600" fill="#1f2933" text-anchor="middle">Sokoban prize</text><text x="630" y="160" font-size="12" font-style="italic" fill="#555" text-anchor="middle">bag of holding/amulet of reflection</text><rect x="540" y="194" width="180" height="32" rx="6" fill="#FFF4CC" stroke="#B58A1A" stroke-width="1.5"/><text x="630" y="215" font-size="15" font-weight="600" fill="#1f2933" text-anchor="middle">Sokoban entry</text><rect x="290" y="269" width="180" height="32" rx="6" fill="#FAF3E0" stroke="#B5651D" stroke-width="1.5"/><text x="380" y="290" font-size="15" font-weight="600" fill="#1f2933" text-anchor="middle"><tspan>Q</tspan>uest portal</text><rect x="540" y="265" width="180" height="40" rx="6" fill="#DDE9F5" stroke="#3B6FA0" stroke-width="1.5"/><text x="630" y="282" font-size="15" font-weight="600" fill="#1f2933" text-anchor="middle"><tspan>Q</tspan>uest entry</text><text x="630" y="299" font-size="12" font-style="italic" fill="#555" text-anchor="middle">your role's dungeon</text><rect x="540" y="343" width="180" height="40" rx="6" fill="#DDE9F5" stroke="#3B6FA0" stroke-width="1.5"/><text x="630" y="360" font-size="15" font-weight="600" fill="#1f2933" text-anchor="middle"><tspan>Q</tspan>uest goal</text><text x="630" y="377" font-size="12" font-style="italic" fill="#555" text-anchor="middle">★ Bell of Opening, role artifact</text><rect x="290" y="329" width="180" height="32" rx="6" fill="#FAF3E0" stroke="#B5651D" stroke-width="1.5"/><text x="380" y="350" font-size="15" font-weight="600" fill="#1f2933" text-anchor="middle">Big Room (40%)</text><rect x="290" y="389" width="180" height="32" rx="6" fill="#FAF3E0" stroke="#B5651D" stroke-width="1.5"/><text x="380" y="410" font-size="15" font-weight="600" fill="#1f2933" text-anchor="middle">Rogue Level</text><rect x="60" y="420" width="180" height="40" rx="6" fill="#FFD966" stroke="#B5891A" stroke-width="1.5"/><text x="150" y="437" font-size="15" font-weight="600" fill="#1f2933" text-anchor="middle">Fort Ludios</text><text x="150" y="454" font-size="12" font-style="italic" fill="#555" text-anchor="middle">vault of gold</text><rect x="290" y="479" width="180" height="32" rx="6" fill="#B8D4F0" stroke="#2E5C8E" stroke-width="1.5"/><text x="380" y="500" font-size="15" font-weight="600" fill="#1f2933" text-anchor="middle">Medusa's Island</text><rect x="230" y="539" width="300" height="58" rx="8" fill="#FFFFFF" stroke="#B5891A" stroke-width="2.5"/><text x="380" y="565" font-size="17" font-weight="600" fill="#1f2933" text-anchor="middle">THE CASTLE</text><text x="380" y="582" font-size="14" font-style="italic" fill="#7A5A0A" text-anchor="middle">wand of wishing</text><line x1="380" y1="124" x2="240" y2="124" stroke="#5a5a5a" stroke-width="1.5" marker-end="url(#arr)" fill="none"/><line x1="380" y1="210" x2="540" y2="210" stroke="#5a5a5a" stroke-width="1.5" marker-end="url(#arr)" fill="none"/><line x1="470" y1="285" x2="540" y2="285" stroke="#5a5a5a" stroke-width="1.5" marker-end="url(#arr)" fill="none"/><line x1="380" y1="440" x2="240" y2="440" stroke="#5a5a5a" stroke-width="1.5" marker-end="url(#arr)" fill="none"/><text x="275" y="120" font-size="11" font-style="italic" fill="#5a5a5a" text-anchor="middle">down</text><text x="500" y="206" font-size="11" font-style="italic" fill="#5a5a5a" text-anchor="middle">up</text><text x="505" y="281" font-size="11" font-style="italic" fill="#5a5a5a" text-anchor="middle">portal</text><text x="275" y="436" font-size="11" font-style="italic" fill="#5a5a5a" text-anchor="middle">portal</text><circle cx="380" cy="124" r="4" fill="#B5651D"/><circle cx="380" cy="210" r="4" fill="#B5651D"/><circle cx="380" cy="440" r="4" fill="#B5651D"/><circle cx="380" cy="104.0" r="4" fill="#B5651D"/><circle cx="380" cy="114.0" r="4" fill="#B5651D"/><circle cx="150" cy="149.0" r="4" fill="#5B8E3A"/><circle cx="150" cy="159.0" r="4" fill="#5B8E3A"/><circle cx="150" cy="217.0" r="4" fill="#5B8E3A"/><circle cx="150" cy="227.0" r="4" fill="#5B8E3A"/><circle cx="150" cy="237.0" r="4" fill="#5B8E3A"/><circle cx="380" cy="134.0" r="4" fill="#B5651D"/><circle cx="380" cy="144.0" r="4" fill="#B5651D"/><circle cx="380" cy="154.0" r="4" fill="#B5651D"/><circle cx="630" cy="175.0" r="4" fill="#B58A1A"/><circle cx="630" cy="185.0" r="4" fill="#B58A1A"/><circle cx="380" cy="220.0" r="4" fill="#B5651D"/><circle cx="380" cy="230.0" r="4" fill="#B5651D"/><circle cx="380" cy="240.0" r="4" fill="#B5651D"/><circle cx="380" cy="250.0" r="4" fill="#B5651D"/><circle cx="380" cy="260.0" r="4" fill="#B5651D"/><circle cx="630" cy="314.0" r="4" fill="#3B6FA0"/><circle cx="630" cy="324.0" r="4" fill="#3B6FA0"/><circle cx="630" cy="334.0" r="4" fill="#3B6FA0"/><circle cx="380" cy="310.0" r="4" fill="#B5651D"/><circle cx="380" cy="320.0" r="4" fill="#B5651D"/><circle cx="380" cy="370.0" r="4" fill="#B5651D"/><circle cx="380" cy="380.0" r="4" fill="#B5651D"/><circle cx="380" cy="430.0" r="4" fill="#B5651D"/><circle cx="380" cy="450.0" r="4" fill="#B5651D"/><circle cx="380" cy="460.0" r="4" fill="#B5651D"/><circle cx="380" cy="470.0" r="4" fill="#B5651D"/><circle cx="380" cy="520.0" r="4" fill="#B5651D"/><circle cx="380" cy="530.0" r="4" fill="#B5651D"/></svg>
<svg x="57.892118164676276" y="233.34367316153367" width="262.21576367064745" height="234.959125078567" viewBox="0 0 760 681" preserveAspectRatio="xMidYMin meet" overflow="visible"><defs><marker id="arr" viewBox="0 0 10 10" refX="9" refY="5" markerWidth="6" markerHeight="6" orient="auto-start-reverse"><path d="M 0 0 L 10 5 L 0 10 z" fill="#5a5a5a"/></marker></defs><line x1="380" y1="0" x2="380" y2="39" stroke="#B5651D" stroke-width="2.5" fill="none"/><line x1="380" y1="0" x2="380" y2="625" stroke="#A14A3F" stroke-width="2.5" fill="none"/><rect x="40" y="0" width="680" height="39" rx="4" fill="#A14A3F"/><text x="380" y="26" font-size="22" font-weight="600" fill="#fff" text-anchor="middle" letter-spacing="0.08em">GEHENNOM</text><line x1="150" y1="288" x2="150" y2="306" stroke="#6B4E96" stroke-width="2" fill="none"/><rect x="290" y="53" width="180" height="40" rx="6" fill="#FAD7C0" stroke="#A14A3F" stroke-width="1.5"/><text x="380" y="70" font-size="15" font-weight="600" fill="#1f2933" text-anchor="middle">Valley of the Dead</text><text x="380" y="87" font-size="12" font-style="italic" fill="#555" text-anchor="middle">Gehennom's entrance</text><rect x="290" y="141" width="180" height="32" rx="6" fill="#FAD7C0" stroke="#A14A3F" stroke-width="1.5"/><text x="380" y="162" font-size="15" font-weight="600" fill="#1f2933" text-anchor="middle">Asmodeus's Lair</text><rect x="290" y="191" width="180" height="32" rx="6" fill="#FAD7C0" stroke="#A14A3F" stroke-width="1.5"/><text x="380" y="212" font-size="15" font-weight="600" fill="#1f2933" text-anchor="middle">Juiblex's Swamp</text><rect x="290" y="251" width="180" height="32" rx="6" fill="#FAD7C0" stroke="#A14A3F" stroke-width="1.5"/><text x="380" y="272" font-size="15" font-weight="600" fill="#1f2933" text-anchor="middle">Baalzebub's Lair</text><rect x="60" y="248" width="180" height="40" rx="6" fill="#E3D8F0" stroke="#6B4E96" stroke-width="1.5"/><text x="150" y="265" font-size="15" font-weight="600" fill="#1f2933" text-anchor="middle">Vlad the Impaler</text><text x="150" y="282" font-size="12" font-style="italic" fill="#555" text-anchor="middle">★ Candelabrum</text><rect x="60" y="306" width="180" height="32" rx="6" fill="#E3D8F0" stroke="#6B4E96" stroke-width="1.5"/><text x="150" y="327" font-size="15" font-weight="600" fill="#1f2933" text-anchor="middle">Vlad's Tower</text><rect x="290" y="351" width="180" height="40" rx="6" fill="#FAD7C0" stroke="#A14A3F" stroke-width="1.5"/><text x="380" y="368" font-size="15" font-weight="600" fill="#1f2933" text-anchor="middle">Orcus Town</text><text x="380" y="385" font-size="12" font-style="italic" fill="#555" text-anchor="middle">Wand of Orcus · magic lamp/marker</text><rect x="290" y="419" width="180" height="32" rx="6" fill="#FAD7C0" stroke="#A14A3F" stroke-width="1.5"/><text x="380" y="440" font-size="15" font-weight="600" fill="#1f2933" text-anchor="middle">Wizard's Tower</text><rect x="290" y="469" width="180" height="40" rx="6" fill="#FAD7C0" stroke="#A14A3F" stroke-width="1.5"/><text x="380" y="486" font-size="15" font-weight="600" fill="#1f2933" text-anchor="middle">Wizard of Yendor</text><text x="380" y="503" font-size="12" font-style="italic" fill="#555" text-anchor="middle">★ Book of the Dead</text><rect x="230" y="567" width="300" height="58" rx="8" fill="#2D2D2D" stroke="#FFC857" stroke-width="2.5"/><text x="380" y="593" font-size="17" font-weight="600" fill="#FFC857" text-anchor="middle">Moloch's Sanctum</text><text x="380" y="610" font-size="14" font-style="italic" fill="#FFE680" text-anchor="middle">the Amulet of Yendor</text><line x1="380" y1="322" x2="240" y2="322" stroke="#5a5a5a" stroke-width="1.5" marker-end="url(#arr)" fill="none"/><text x="275" y="318" font-size="11" font-style="italic" fill="#5a5a5a" text-anchor="middle">up</text><circle cx="380" cy="322" r="4" fill="#A14A3F"/><circle cx="380" cy="102.0" r="4" fill="#A14A3F"/><circle cx="380" cy="112.0" r="4" fill="#A14A3F"/><circle cx="380" cy="122.0" r="4" fill="#A14A3F"/><circle cx="380" cy="132.0" r="4" fill="#A14A3F"/><circle cx="380" cy="182.0" r="4" fill="#A14A3F"/><circle cx="380" cy="232.0" r="4" fill="#A14A3F"/><circle cx="380" cy="242.0" r="4" fill="#A14A3F"/><circle cx="380" cy="292.0" r="4" fill="#A14A3F"/><circle cx="380" cy="302.0" r="4" fill="#A14A3F"/><circle cx="380" cy="312.0" r="4" fill="#A14A3F"/><circle cx="150" cy="297.0" r="4" fill="#6B4E96"/><circle cx="380" cy="332.0" r="4" fill="#A14A3F"/><circle cx="380" cy="342.0" r="4" fill="#A14A3F"/><circle cx="380" cy="400.0" r="4" fill="#A14A3F"/><circle cx="380" cy="410.0" r="4" fill="#A14A3F"/><circle cx="380" cy="460.0" r="4" fill="#A14A3F"/><circle cx="380" cy="518.0" r="4" fill="#A14A3F"/><circle cx="380" cy="528.0" r="4" fill="#A14A3F"/><circle cx="380" cy="538.0" r="4" fill="#A14A3F"/><circle cx="380" cy="548.0" r="4" fill="#A14A3F"/><circle cx="380" cy="558.0" r="4" fill="#A14A3F"/><line x1="380" y1="631" x2="380" y2="681" stroke="#5B8E3A" stroke-width="2.5" stroke-dasharray="7,5" fill="none"/><text x="400" y="661" font-size="15" font-weight="600" font-style="italic" fill="#5B8E3A">now go <tspan style="font-weight:800;font-size:17px">ALL</tspan> the way back up...</text></svg>
<svg x="57.892118164676276" y="468.3027982401007" width="262.21576367064745" height="103.16120175989946" viewBox="0 0 760 299" preserveAspectRatio="xMidYMin meet" overflow="visible"><defs><marker id="arr" viewBox="0 0 10 10" refX="9" refY="5" markerWidth="6" markerHeight="6" orient="auto-start-reverse"><path d="M 0 0 L 10 5 L 0 10 z" fill="#5a5a5a"/></marker></defs><rect x="40" y="0" width="680" height="39" rx="4" fill="#5D3C8E"/><text x="380" y="26" font-size="22" font-weight="600" fill="#fff" text-anchor="middle" letter-spacing="0.08em">THE ELEMENTAL PLANES</text><rect x="68" y="89" width="120" height="40" rx="6" fill="#E8DDC8" stroke="#8B6F47" stroke-width="1.5"/><text x="128" y="115" font-size="15" font-weight="600" fill="#1f2933" text-anchor="middle">Earth</text><rect x="236" y="89" width="120" height="40" rx="6" fill="#E0F4FA" stroke="#3B9FA8" stroke-width="1.5"/><text x="296" y="115" font-size="15" font-weight="600" fill="#1f2933" text-anchor="middle">Air</text><rect x="404" y="89" width="120" height="40" rx="6" fill="#FAD7C0" stroke="#A14A3F" stroke-width="1.5"/><text x="464" y="115" font-size="15" font-weight="600" fill="#1f2933" text-anchor="middle">Fire</text><rect x="572" y="89" width="120" height="40" rx="6" fill="#DDE9F5" stroke="#3B6FA0" stroke-width="1.5"/><text x="632" y="115" font-size="15" font-weight="600" fill="#1f2933" text-anchor="middle">Water</text><rect x="260" y="179" width="240" height="42" rx="6" fill="#D8C6F0" stroke="#5D3C8E" stroke-width="1.5"/><text x="380" y="197" font-size="15" font-weight="600" fill="#1f2933" text-anchor="middle">Astral Plane</text><text x="380" y="213" font-size="12" font-style="italic" fill="#555" text-anchor="middle">three altars · pick yours</text><rect x="230" y="239" width="300" height="50" rx="10" fill="#FFE680" stroke="#B5891A" stroke-width="2.5"/><text x="380" y="262" font-size="18" font-weight="700" fill="#7A5A0A" text-anchor="middle" letter-spacing="0.1em">ASCENSION</text><text x="380" y="281" font-size="11" font-style="italic" fill="#7A5A0A" text-anchor="middle">offer the Amulet at your altar</text><path d="M 380 39 C 380 53 128 53 128 67 L 128 89" stroke="#5a5a5a" stroke-width="1.5" fill="none" marker-end="url(#arr)"/><line x1="188" y1="109" x2="236" y2="109" stroke="#5a5a5a" stroke-width="1.5" fill="none" marker-end="url(#arr)"/><text x="212" y="105" font-size="11" font-style="italic" fill="#5a5a5a" text-anchor="middle">portals</text><line x1="356" y1="109" x2="404" y2="109" stroke="#5a5a5a" stroke-width="1.5" fill="none" marker-end="url(#arr)"/><line x1="524" y1="109" x2="572" y2="109" stroke="#5a5a5a" stroke-width="1.5" fill="none" marker-end="url(#arr)"/><path d="M 632 129 C 632 143 380 143 380 157 L 380 179" stroke="#5a5a5a" stroke-width="1.5" fill="none" marker-end="url(#arr)"/><line x1="380" y1="221" x2="380" y2="239" stroke="#5a5a5a" stroke-width="1.5" fill="none" marker-end="url(#arr)"/></svg>
<svg x="434.282" y="22.536" width="332.92800000000005" height="548.9280000000001" viewBox="0 0 760 736" preserveAspectRatio="xMidYMid meet" overflow="visible"><title>The Identification Flowchart</title><defs><marker id="arrowhead" viewBox="0 0 10 10" refX="9" refY="5" markerWidth="7" markerHeight="7" orient="auto-start-reverse"><path d="M 0 0 L 10 5 L 0 10 z" fill="#5a5a5a"/></marker><style>.start{fill:#E8F4FD;stroke:#3B6FA0;stroke-width:2}.decision{fill:#FFF4E6;stroke:#B5651D;stroke-width:2}.action{fill:#F0F9E8;stroke:#5B8E3A;stroke-width:2}.final{fill:#FCE8E6;stroke:#A14A3F;stroke-width:2}.label{font-size:18px;fill:#1f2933;text-anchor:middle}.startlbl{font-size:19px;font-weight:600;fill:#1f2933;text-anchor:middle}.branch{font-size:16px;font-style:italic;fill:#5a5a5a}.edge{fill:none;stroke:#5a5a5a;stroke-width:1.5}</style></defs><rect class="start" x="40" y="20" width="320" height="50" rx="25" ry="25"/><text class="startlbl" x="200" y="51">Found an item</text><path class="edge" d="M 200 70 L 200 100" marker-end="url(#arrowhead)"/><rect class="decision" x="40" y="100" width="320" height="56" rx="10" ry="10"/><text class="label" x="200" y="133">Can you reach an altar?</text><path class="edge" d="M 360 128 L 430 128" marker-end="url(#arrowhead)"/><text class="branch" x="395" y="121" text-anchor="middle">yes</text><rect class="action" x="430" y="100" width="290" height="56" rx="8" ry="8"/><text class="label" x="575" y="133">Drop it. Check BUC.</text><text class="branch" x="210" y="172">no</text><path class="edge" d="M 200 156 L 200 190" marker-end="url(#arrowhead)"/><rect class="decision" x="40" y="190" width="320" height="56" rx="10" ry="10"/><text class="label" x="200" y="223">Is your pet nearby?</text><path class="edge" d="M 360 218 L 430 218" marker-end="url(#arrowhead)"/><text class="branch" x="395" y="211" text-anchor="middle">yes</text><rect class="action" x="430" y="184" width="290" height="62" rx="8" ry="8"/><text class="label" x="575" y="210">Drop it. Pet avoids it?</text><text class="label" x="575" y="232" style="font-size: 16px;"><tspan style="font-style: italic; fill:#5a5a5a;">yes</tspan>: it's cursed; <tspan style="font-style: italic; fill:#5a5a5a;">no</tspan>: it's safe</text><text class="branch" x="210" y="262">no</text><path class="edge" d="M 200 246 L 200 290" marker-end="url(#arrowhead)"/><rect class="decision" x="40" y="290" width="320" height="56" rx="10" ry="10"/><text class="label" x="200" y="323">Can you reach a shop?</text><path class="edge" d="M 360 318 L 430 318" marker-end="url(#arrowhead)"/><text class="branch" x="395" y="311" text-anchor="middle">yes</text><rect class="action" x="430" y="290" width="290" height="56" rx="8" ry="8"/><text class="label" x="575" y="323">Check price.</text><text class="branch" x="210" y="362">no</text><path class="edge" d="M 200 346 L 200 380" marker-end="url(#arrowhead)"/><rect class="decision" x="40" y="380" width="320" height="56" rx="10" ry="10"/><text class="label" x="200" y="413">Is it a wand?</text><path class="edge" d="M 360 408 L 430 408" marker-end="url(#arrowhead)"/><text class="branch" x="395" y="401" text-anchor="middle">yes</text><rect class="action" x="430" y="380" width="290" height="56" rx="8" ry="8"/><text class="label" x="575" y="413">Engrave-test it.</text><text class="branch" x="210" y="452">no</text><path class="edge" d="M 200 436 L 200 470" marker-end="url(#arrowhead)"/><rect class="decision" x="40" y="470" width="320" height="56" rx="10" ry="10"/><text class="label" x="200" y="503">Spare ring or potion with a sink?</text><path class="edge" d="M 360 498 L 430 498" marker-end="url(#arrowhead)"/><text class="branch" x="395" y="491" text-anchor="middle">yes</text><rect class="action" x="430" y="470" width="290" height="56" rx="8" ry="8"/><text class="label" x="575" y="503">Drop ring or dip potion.</text><text class="branch" x="210" y="542">no</text><path class="edge" d="M 200 526 L 200 560" marker-end="url(#arrowhead)"/><rect class="decision" x="40" y="560" width="320" height="56" rx="10" ry="10"/><text class="label" x="200" y="593">Is it safe to use-test?</text><path class="edge" d="M 360 588 L 430 588" marker-end="url(#arrowhead)"/><text class="branch" x="395" y="581" text-anchor="middle">yes</text><rect class="action" x="430" y="560" width="290" height="56" rx="8" ry="8"/><text class="label" x="575" y="593">Try it carefully.</text><text class="branch" x="210" y="632">no</text><path class="edge" d="M 200 616 L 200 660" marker-end="url(#arrowhead)"/><rect class="final" x="40" y="660" width="320" height="56" rx="10" ry="10"/><text class="label" x="200" y="693">Read a scroll of identify.</text></svg>
</svg>