<svg xmlns="http://www.w3.org/2000/svg" viewBox="0 0 760 611" role="img" aria-label="Dungeons of Doom map" style="display:block;margin:0 auto;max-width:760px;width:100%;height:auto;font-family:'EB Garamond','Garamond','Georgia',serif;font-feature-settings:'liga' 0, 'dlig' 0;"><defs><marker id="arr" viewBox="0 0 10 10" refX="9" refY="5" markerWidth="6" markerHeight="6" orient="auto-start-reverse"><path d="M 0 0 L 10 5 L 0 10 z" fill="#5a5a5a"/></marker></defs><line x1="380" y1="55" x2="380" y2="611" stroke="#B5651D" stroke-width="2.5" fill="none"/><rect x="40" y="0" width="680" height="39" rx="4" fill="#B5651D"/><text x="380" y="26" font-size="22" font-weight="600" fill="#fff" text-anchor="middle" letter-spacing="0.08em">DUNGEONS OF DOOM</text><line x1="150" y1="140" x2="150" y2="246" stroke="#5B8E3A" stroke-width="2" fill="none"/><line x1="630" y1="166" x2="630" y2="194" stroke="#B58A1A" stroke-width="2" fill="none"/><line x1="630" y1="305" x2="630" y2="343" stroke="#3B6FA0" stroke-width="2" fill="none"/><rect x="290" y="55" width="180" height="40" rx="6" fill="#FAF3E0" stroke="#B5651D" stroke-width="1.5"/><text x="380" y="72" font-size="15" font-weight="600" fill="#1f2933" text-anchor="middle">The Dungeon Entrance</text><text x="380" y="89" font-size="12" font-style="italic" fill="#555" text-anchor="middle">up-stair to exit</text><rect x="60" y="108" width="180" height="32" rx="6" fill="#E8F4DC" stroke="#5B8E3A" stroke-width="1.5"/><text x="150" y="129" font-size="15" font-weight="600" fill="#1f2933" text-anchor="middle">Gnomish Mines</text><rect x="60" y="168" width="180" height="40" rx="6" fill="#E8F4DC" stroke="#5B8E3A" stroke-width="1.5"/><text x="150" y="185" font-size="15" font-weight="600" fill="#1f2933" text-anchor="middle">Minetown</text><text x="150" y="202" font-size="12" font-style="italic" fill="#555" text-anchor="middle">shops, temple</text><rect x="60" y="246" width="180" height="40" rx="6" fill="#E8F4DC" stroke="#5B8E3A" stroke-width="1.5"/><text x="150" y="263" font-size="15" font-weight="600" fill="#1f2933" text-anchor="middle">Mine's End</text><text x="150" y="280" font-size="12" font-style="italic" fill="#555" text-anchor="middle">luckstone</text><rect x="290" y="163" width="180" height="40" rx="6" fill="#FAF3E0" stroke="#B5651D" stroke-width="1.5"/><text x="380" y="180" font-size="15" font-weight="600" fill="#1f2933" text-anchor="middle">The Oracle</text><text x="380" y="197" font-size="12" font-style="italic" fill="#555" text-anchor="middle">paid hints</text><rect x="540" y="126" width="180" height="40" rx="6" fill="#FFF4CC" stroke="#B58A1A" stroke-width="1.5"/><text x="630" y="143" font-size="15" font-weight="600" fill="#1f2933" text-anchor="middle">Sokoban prize</text><text x="630" y="160" font-size="12" font-style="italic" fill="#555" text-anchor="middle">bag of holding/amulet of reflection</text><rect x="540" y="194" width="180" height="32" rx="6" fill="#FFF4CC" stroke="#B58A1A" stroke-width="1.5"/><text x="630" y="215" font-size="15" font-weight="600" fill="#1f2933" text-anchor="middle">Sokoban entry</text><rect x="290" y="269" width="180" height="32" rx="6" fill="#FAF3E0" stroke="#B5651D" stroke-width="1.5"/><text x="380" y="290" font-size="15" font-weight="600" fill="#1f2933" text-anchor="middle"><tspan>Q</tspan>uest portal</text><rect x="540" y="265" width="180" height="40" rx="6" fill="#DDE9F5" stroke="#3B6FA0" stroke-width="1.5"/><text x="630" y="282" font-size="15" font-weight="600" fill="#1f2933" text-anchor="middle"><tspan>Q</tspan>uest entry</text><text x="630" y="299" font-size="12" font-style="italic" fill="#555" text-anchor="middle">your role's dungeon</text><rect x="540" y="343" width="180" height="40" rx="6" fill="#DDE9F5" stroke="#3B6FA0" stroke-width="1.5"/><text x="630" y="360" font-size="15" font-weight="600" fill="#1f2933" text-anchor="middle"><tspan>Q</tspan>uest goal</text><text x="630" y="377" font-size="12" font-style="italic" fill="#555" text-anchor="middle">★ Bell of Opening, role artifact</text><rect x="290" y="329" width="180" height="32" rx="6" fill="#FAF3E0" stroke="#B5651D" stroke-width="1.5"/><text x="380" y="350" font-size="15" font-weight="600" fill="#1f2933" text-anchor="middle">Big Room (40%)</text><rect x="290" y="389" width="180" height="32" rx="6" fill="#FAF3E0" stroke="#B5651D" stroke-width="1.5"/><text x="380" y="410" font-size="15" font-weight="600" fill="#1f2933" text-anchor="middle">Rogue Level</text><rect x="60" y="420" width="180" height="40" rx="6" fill="#FFD966" stroke="#B5891A" stroke-width="1.5"/><text x="150" y="437" font-size="15" font-weight="600" fill="#1f2933" text-anchor="middle">Fort Ludios</text><text x="150" y="454" font-size="12" font-style="italic" fill="#555" text-anchor="middle">vault of gold</text><rect x="290" y="479" width="180" height="32" rx="6" fill="#B8D4F0" stroke="#2E5C8E" stroke-width="1.5"/><text x="380" y="500" font-size="15" font-weight="600" fill="#1f2933" text-anchor="middle">Medusa's Island</text><rect x="230" y="539" width="300" height="58" rx="8" fill="#FFFFFF" stroke="#B5891A" stroke-width="2.5"/><text x="380" y="565" font-size="17" font-weight="600" fill="#1f2933" text-anchor="middle">THE CASTLE</text><text x="380" y="582" font-size="14" font-style="italic" fill="#7A5A0A" text-anchor="middle">wand of wishing</text><line x1="380" y1="124" x2="240" y2="124" stroke="#5a5a5a" stroke-width="1.5" marker-end="url(#arr)" fill="none"/><line x1="380" y1="210" x2="540" y2="210" stroke="#5a5a5a" stroke-width="1.5" marker-end="url(#arr)" fill="none"/><line x1="470" y1="285" x2="540" y2="285" stroke="#5a5a5a" stroke-width="1.5" marker-end="url(#arr)" fill="none"/><line x1="380" y1="440" x2="240" y2="440" stroke="#5a5a5a" stroke-width="1.5" marker-end="url(#arr)" fill="none"/><text x="275" y="120" font-size="11" font-style="italic" fill="#5a5a5a" text-anchor="middle">down</text><text x="500" y="206" font-size="11" font-style="italic" fill="#5a5a5a" text-anchor="middle">up</text><text x="505" y="281" font-size="11" font-style="italic" fill="#5a5a5a" text-anchor="middle">portal</text><text x="275" y="436" font-size="11" font-style="italic" fill="#5a5a5a" text-anchor="middle">portal</text><circle cx="380" cy="124" r="4" fill="#B5651D"/><circle cx="380" cy="210" r="4" fill="#B5651D"/><circle cx="380" cy="440" r="4" fill="#B5651D"/><circle cx="380" cy="104.0" r="4" fill="#B5651D"/><circle cx="380" cy="114.0" r="4" fill="#B5651D"/><circle cx="150" cy="149.0" r="4" fill="#5B8E3A"/><circle cx="150" cy="159.0" r="4" fill="#5B8E3A"/><circle cx="150" cy="217.0" r="4" fill="#5B8E3A"/><circle cx="150" cy="227.0" r="4" fill="#5B8E3A"/><circle cx="150" cy="237.0" r="4" fill="#5B8E3A"/><circle cx="380" cy="134.0" r="4" fill="#B5651D"/><circle cx="380" cy="144.0" r="4" fill="#B5651D"/><circle cx="380" cy="154.0" r="4" fill="#B5651D"/><circle cx="630" cy="175.0" r="4" fill="#B58A1A"/><circle cx="630" cy="185.0" r="4" fill="#B58A1A"/><circle cx="380" cy="220.0" r="4" fill="#B5651D"/><circle cx="380" cy="230.0" r="4" fill="#B5651D"/><circle cx="380" cy="240.0" r="4" fill="#B5651D"/><circle cx="380" cy="250.0" r="4" fill="#B5651D"/><circle cx="380" cy="260.0" r="4" fill="#B5651D"/><circle cx="630" cy="314.0" r="4" fill="#3B6FA0"/><circle cx="630" cy="324.0" r="4" fill="#3B6FA0"/><circle cx="630" cy="334.0" r="4" fill="#3B6FA0"/><circle cx="380" cy="310.0" r="4" fill="#B5651D"/><circle cx="380" cy="320.0" r="4" fill="#B5651D"/><circle cx="380" cy="370.0" r="4" fill="#B5651D"/><circle cx="380" cy="380.0" r="4" fill="#B5651D"/><circle cx="380" cy="430.0" r="4" fill="#B5651D"/><circle cx="380" cy="450.0" r="4" fill="#B5651D"/><circle cx="380" cy="460.0" r="4" fill="#B5651D"/><circle cx="380" cy="470.0" r="4" fill="#B5651D"/><circle cx="380" cy="520.0" r="4" fill="#B5651D"/><circle cx="380" cy="530.0" r="4" fill="#B5651D"/></svg>