<svg xmlns="http://www.w3.org/2000/svg" viewBox="0 0 760 299" role="img" aria-label="Elemental Planes and Ascension" style="display:block;margin:0 auto;max-width:760px;width:100%;height:auto;font-family:'EB Garamond','Garamond','Georgia',serif;font-feature-settings:'liga' 0, 'dlig' 0;"><defs><marker id="arr" viewBox="0 0 10 10" refX="9" refY="5" markerWidth="6" markerHeight="6" orient="auto-start-reverse"><path d="M 0 0 L 10 5 L 0 10 z" fill="#5a5a5a"/></marker></defs><rect x="40" y="0" width="680" height="39" rx="4" fill="#5D3C8E"/><text x="380" y="26" font-size="22" font-weight="600" fill="#fff" text-anchor="middle" letter-spacing="0.08em">THE ELEMENTAL PLANES</text><rect x="68" y="89" width="120" height="40" rx="6" fill="#E8DDC8" stroke="#8B6F47" stroke-width="1.5"/><text x="128" y="115" font-size="15" font-weight="600" fill="#1f2933" text-anchor="middle">Earth</text><rect x="236" y="89" width="120" height="40" rx="6" fill="#E0F4FA" stroke="#3B9FA8" stroke-width="1.5"/><text x="296" y="115" font-size="15" font-weight="600" fill="#1f2933" text-anchor="middle">Air</text><rect x="404" y="89" width="120" height="40" rx="6" fill="#FAD7C0" stroke="#A14A3F" stroke-width="1.5"/><text x="464" y="115" font-size="15" font-weight="600" fill="#1f2933" text-anchor="middle">Fire</text><rect x="572" y="89" width="120" height="40" rx="6" fill="#DDE9F5" stroke="#3B6FA0" stroke-width="1.5"/><text x="632" y="115" font-size="15" font-weight="600" fill="#1f2933" text-anchor="middle">Water</text><rect x="260" y="179" width="240" height="42" rx="6" fill="#D8C6F0" stroke="#5D3C8E" stroke-width="1.5"/><text x="380" y="197" font-size="15" font-weight="600" fill="#1f2933" text-anchor="middle">Astral Plane</text><text x="380" y="213" font-size="12" font-style="italic" fill="#555" text-anchor="middle">three altars · pick yours</text><rect x="230" y="239" width="300" height="50" rx="10" fill="#FFE680" stroke="#B5891A" stroke-width="2.5"/><text x="380" y="262" font-size="18" font-weight="700" fill="#7A5A0A" text-anchor="middle" letter-spacing="0.1em">ASCENSION</text><text x="380" y="281" font-size="11" font-style="italic" fill="#7A5A0A" text-anchor="middle">offer the Amulet at your altar</text><path d="M 380 39 C 380 53 128 53 128 67 L 128 89" stroke="#5a5a5a" stroke-width="1.5" fill="none" marker-end="url(#arr)"/><line x1="188" y1="109" x2="236" y2="109" stroke="#5a5a5a" stroke-width="1.5" fill="none" marker-end="url(#arr)"/><text x="212" y="105" font-size="11" font-style="italic" fill="#5a5a5a" text-anchor="middle">portals</text><line x1="356" y1="109" x2="404" y2="109" stroke="#5a5a5a" stroke-width="1.5" fill="none" marker-end="url(#arr)"/><line x1="524" y1="109" x2="572" y2="109" stroke="#5a5a5a" stroke-width="1.5" fill="none" marker-end="url(#arr)"/><path d="M 632 129 C 632 143 380 143 380 157 L 380 179" stroke="#5a5a5a" stroke-width="1.5" fill="none" marker-end="url(#arr)"/><line x1="380" y1="221" x2="380" y2="239" stroke="#5a5a5a" stroke-width="1.5" fill="none" marker-end="url(#arr)"/></svg>